<?xml version="1.0" encoding="utf-8"?>
<!-- Generator: Adobe Illustrator 25.0.0, SVG Export Plug-In . SVG Version: 6.00 Build 0)  -->
<svg version="1.1" id="Capa_1" xmlns="http://www.w3.org/2000/svg" xmlns:xlink="http://www.w3.org/1999/xlink" x="0px" y="0px"
	 viewBox="0 0 32 32" style="enable-background:new 0 0 32 32;" xml:space="preserve">
<style type="text/css">
	.st0{fill:#FF0000;}
	.st1{fill:#FFFFFF;}
</style>
<rect x="0" class="st0" width="32" height="32"/>
<path class="st0" d="M-455.4-8.8h34.7c7.9,0,11.4,3.5,11.4,9.6c0,3.4-1.7,6.4-4.6,7.5v0.1c3.9,1.1,6.6,4.7,6.6,8.8
	c0,7.6-3.8,12.5-15.1,12.5h-33V-8.8z M-440.5,5.6h11.5c3.1,0,3.8-1,3.8-2.5s-0.7-2.4-3.8-2.4h-11.5V5.6z M-440.5,20.4h13
	c3,0,3.9-1.3,3.9-3s-0.9-3-3.9-3h-13V20.4z"/>
<path class="st1" d="M4.7,7H21c3.7,0,5.3,1.6,5.3,4.5c0,1.6-0.8,3-2.2,3.5v0.1c1.8,0.5,3.1,2.2,3.1,4.1c0,3.5-1.8,5.9-7.1,5.9H4.7V7
	z M11.7,13.7h5.4c1.4,0,1.8-0.5,1.8-1.2s-0.3-1.1-1.8-1.1h-5.4V13.7z M11.7,20.7h6.1c1.4,0,1.8-0.6,1.8-1.4s-0.4-1.4-1.8-1.4h-6.1
	V20.7z"/>
<path class="st0" d="M-363.4,29.8h-13.1v-9.4h-0.1c0,2.9-1.8,10.5-12.2,10.5c-7.5,0-13.1-3.3-13.1-11.6V0.2h13.5v15.7
	c0,3.7,2,5.3,5.2,5.3c4.2,0,6.3-2.6,6.3-7.1V0.2h13.5V29.8z"/>
<path class="st0" d="M-356.9,0.2h13.1v5.7h0.1c2.9-4.1,7.6-6.5,12.6-6.5c1.5,0,3,0.1,4.4,0.3v12.1c-2.2-0.6-4.5-1-6.8-1.1
	c-4.8,0-9.9,1.6-9.9,7.9v11.1h-13.5V0.2z"/>
<path class="st0" d="M-294.9,24.8c-2.7,2.4-6.9,3.2-11.7,3.2c-11.6,0-17.9-5-17.9-14.3s7.8-14.3,17.9-14.3c5.4,0,9.5,1.5,12.1,4.2
	V0.2h13.1v27.5c0,9.5-7.1,13.1-20.6,13.1c-14.7,0-20.1-3-21.4-10.4h14.9c0.2,0.9,0.8,1.8,1.7,2.2c1.4,0.6,2.9,0.8,4.5,0.8
	c5.5,0,7.4-2,7.4-6L-294.9,24.8z M-302.7,8.2c-5.6,0-7.7,2.7-7.7,5.8s2.1,5.9,7.7,5.9c5.7,0,7.8-2.7,7.8-5.9S-297,8.2-302.7,8.2z"/>
<path class="st0" d="M-233.2,20.9c-1.2,3.3-3.6,5.9-6.8,7.3c-3.5,1.7-8.1,2.7-14.3,2.7c-14.2,0-22.3-5.2-22.3-16
	c0-10.2,7.8-15.9,21.1-15.9c13.1,0,22.7,4.4,22.5,19.1h-29.7c0,2.1,2.2,5.4,8.2,5.4c3.5,0,5.6-0.8,7-2.6L-233.2,20.9z M-246.7,11.3
	c-0.3-3.2-3.4-5.2-8-5.2s-7.4,1.5-8.1,5.2H-246.7z"/>
<path class="st0" d="M-228,0.2h13.1v5.7h0.1c2.9-4.1,7.6-6.5,12.6-6.5c1.5,0,3,0.1,4.4,0.3v12.1c-2.2-0.6-4.5-1-6.8-1.1
	c-4.8,0-9.9,1.6-9.9,7.9v11.1H-228V0.2z"/>
<path class="st0" d="M-185,18c-7.8-0.8-10.1-3.9-10.1-9.1c0-7,6.5-9.9,19.7-9.9c9.2,0,19.3,1.7,19.5,10h-15.2c0-0.8-0.3-1.5-1-1.8
	c-1.2-0.6-2.6-0.8-4-0.8c-4,0-4.8,0.9-4.8,2.1c0,0.8,0.7,1.6,3.6,1.8l12.9,1.1c7.3,0.6,10,3.9,10,8.9c0,7.6-6.6,10.5-20.9,10.5
	c-14,0-20.1-2.9-20.6-10.4h15.9c0.1,1,0.7,2,1.6,2.4c1.2,0.4,2.5,0.6,3.8,0.5c3.5,0,4.5-0.9,4.5-2.3c0-0.9-0.4-1.7-1.8-1.8L-185,18z
	"/>
</svg>
