<svg id="Capa_1" data-name="Capa 1" xmlns="http://www.w3.org/2000/svg" viewBox="0 0 300.92 49.58"><defs><style>.cls-1{fill:#fff;}</style></defs><path class="cls-1" d="M0,0H34.67c7.89,0,11.4,3.46,11.4,9.61,0,3.41-1.68,6.38-4.59,7.51v.11A9,9,0,0,1,48.07,26c0,7.56-3.78,12.53-15.07,12.53H0ZM14.91,14.37h11.5c3.08,0,3.78-1,3.78-2.54s-.7-2.43-3.78-2.43H14.91Zm0,14.79h13c3,0,3.94-1.29,3.94-3s-.91-3-3.94-3h-13Z"/><path class="cls-1" d="M92,38.56H78.9V29.2h-.11c0,2.87-1.82,10.55-12.2,10.55-7.45,0-13.07-3.35-13.07-11.56V9H67V24.68C67,28.41,69,30,72.21,30c4.21,0,6.26-2.65,6.26-7.08V9H92Z"/><path class="cls-1" d="M98.45,9h13.07v5.67h.11a15.34,15.34,0,0,1,12.58-6.48,31.43,31.43,0,0,1,4.43.32v12.1a26.84,26.84,0,0,0-6.75-1.08c-4.81,0-9.94,1.57-9.94,7.94V38.56H98.45Z"/><path class="cls-1" d="M160.45,33.54c-2.7,2.37-6.91,3.19-11.72,3.19-11.61,0-17.88-5-17.88-14.26s7.83-14.26,17.88-14.26c5.4,0,9.45,1.51,12.15,4.16V9H174V36.46c0,9.45-7.07,13.12-20.58,13.12-14.74,0-20.09-3-21.38-10.37h14.9a3,3,0,0,0,1.68,2.16,10.23,10.23,0,0,0,4.48.76c5.51,0,7.4-2,7.4-6.05ZM152.67,17c-5.56,0-7.67,2.7-7.67,5.78s2.11,5.88,7.67,5.88c5.73,0,7.78-2.7,7.78-5.88S158.4,17,152.67,17Z"/><path class="cls-1" d="M222.18,29.7a12.79,12.79,0,0,1-6.75,7.35c-3.46,1.73-8.11,2.7-14.32,2.7-14.2,0-22.3-5.19-22.3-16,0-10.2,7.78-15.93,21.06-15.93,13.07,0,22.68,4.38,22.47,19.12H192.63c0,2.11,2.22,5.35,8.16,5.35,3.51,0,5.56-.76,7-2.6Zm-13.45-9.56c-.27-3.18-3.35-5.18-8-5.18s-7.4,1.46-8.11,5.18Z"/><path class="cls-1" d="M227.41,9h13.07v5.67h.11a15.34,15.34,0,0,1,12.58-6.48,31.33,31.33,0,0,1,4.43.32v12.1a26.77,26.77,0,0,0-6.75-1.08c-4.8,0-9.93,1.57-9.93,7.94V38.56H227.41Z"/><path class="cls-1" d="M270.35,26.84c-7.83-.81-10.1-3.94-10.1-9.07,0-7,6.48-9.94,19.66-9.94,9.18,0,19.28,1.68,19.55,10H284.23a2,2,0,0,0-1-1.84,8.21,8.21,0,0,0-4-.76c-4.05,0-4.8.92-4.8,2.06,0,.75.7,1.56,3.62,1.83l12.85,1.14c7.29.64,10.05,3.89,10.05,8.91,0,7.61-6.59,10.53-20.85,10.53-14,0-20.15-2.92-20.58-10.37h15.88A2.89,2.89,0,0,0,277,31.76a10,10,0,0,0,3.84.54c3.45,0,4.48-.92,4.48-2.27,0-.87-.43-1.68-1.84-1.84Z"/></svg>