<svg id="Capa_1" data-name="Capa 1" xmlns="http://www.w3.org/2000/svg" viewBox="0 0 134.85 22.24"><defs><style>.cls-1{fill:red;}</style></defs><path class="cls-1" d="M17.73,4.07Q17.73,7.63,14,8v.12a4.48,4.48,0,0,1,3,1.06A3.72,3.72,0,0,1,18.19,12,6.31,6.31,0,0,1,18,13.61,2.79,2.79,0,0,1,17.18,15a4.56,4.56,0,0,1-1.8,1,10.85,10.85,0,0,1-3.18.38H0V12.22A2.84,2.84,0,0,0,1.4,12a1.06,1.06,0,0,0,.42-1V5.37a1.06,1.06,0,0,0-.42-1A2.71,2.71,0,0,0,0,4.11V0H13a7.41,7.41,0,0,1,2.48.34,3.61,3.61,0,0,1,1.45.91,2.85,2.85,0,0,1,.68,1.31A6.85,6.85,0,0,1,17.73,4.07Zm-9.37,3H10a1.12,1.12,0,0,0,1-.44,1.84,1.84,0,0,0,.3-1.06,1.78,1.78,0,0,0-.3-1,1.1,1.1,0,0,0-1-.45H8.36ZM10,12.22a1.79,1.79,0,0,0,1.29-.36,1.66,1.66,0,0,0,.36-1.2,1.77,1.77,0,0,0-.36-1.23A1.74,1.74,0,0,0,10,9.05H8.36v3.17Z"/><path class="cls-1" d="M35.18,11.33a.74.74,0,0,0,.3.71,1.38,1.38,0,0,0,.7.18h.58v4.12H30.18v-3H30a3.78,3.78,0,0,1-1.39,2.57,5.31,5.31,0,0,1-3.29.88,6,6,0,0,1-2.47-.44,3.65,3.65,0,0,1-2.19-2.52,5.94,5.94,0,0,1-.2-1.45v-3a1.38,1.38,0,0,0-.2-.84,1,1,0,0,0-.8-.25H18.8V4.11h7.75v7a2,2,0,0,0,.1.7,1.07,1.07,0,0,0,.26.4.85.85,0,0,0,.37.18,1.69,1.69,0,0,0,.38,0A1.32,1.32,0,0,0,28.74,12a1.85,1.85,0,0,0,.35-1.2V9.32a1.31,1.31,0,0,0-.21-.84,1,1,0,0,0-.79-.25h-.65V4.11h7.74Z"/><path class="cls-1" d="M113.93,4.11l-.19,3.05h.19a5.32,5.32,0,0,1,1.29-2.65,3.18,3.18,0,0,1,2.35-.89,3.64,3.64,0,0,1,1.47.27,2.65,2.65,0,0,1,1,.72,2.91,2.91,0,0,1,.54,1,4.62,4.62,0,0,1,.17,1.23,3.35,3.35,0,0,1-.16,1A2.52,2.52,0,0,1,119.2,9.5a3.14,3.14,0,0,1-1.34.25,2.53,2.53,0,0,1-1.75-.57,1.73,1.73,0,0,1-.64-1.36,2.1,2.1,0,0,1,.09-.66,2.82,2.82,0,0,1,.18-.44,2.08,2.08,0,0,0,.13-.25c0-.06,0-.08-.08-.08s-.32.18-.5.53A3.91,3.91,0,0,0,115,8.6v2.53a1.29,1.29,0,0,0,.2.84,1,1,0,0,0,.79.25h.67v4.12h-9.34V12.22H108a.85.85,0,0,0,.69-.29,1.09,1.09,0,0,0,.24-.71V9.12a.75.75,0,0,0-.31-.71,1.31,1.31,0,0,0-.69-.18h-.59V4.11Z"/><path class="cls-1" d="M134.47,8.16h-3.05a2.78,2.78,0,0,0-1-1.26A2.46,2.46,0,0,0,129,6.43a1.42,1.42,0,0,0-.79.19.58.58,0,0,0-.29.54.73.73,0,0,0,.51.69,7.24,7.24,0,0,0,1.28.4c.51.12,1.07.26,1.67.43a6.67,6.67,0,0,1,1.67.71,4,4,0,0,1,1.28,1.26,3.73,3.73,0,0,1,.51,2.07,3.27,3.27,0,0,1-.45,1.74,3.53,3.53,0,0,1-1.21,1.22,6,6,0,0,1-1.82.72,10,10,0,0,1-2.25.24,10.57,10.57,0,0,1-2.22-.23,7,7,0,0,1-2-.77l-.11.76h-2.93V12h3A3.62,3.62,0,0,0,126,13.33a2.38,2.38,0,0,0,1.46.49,1.31,1.31,0,0,0,.87-.23.67.67,0,0,0,.26-.5.78.78,0,0,0-.51-.71,7.29,7.29,0,0,0-1.26-.44l-1.65-.43a6.15,6.15,0,0,1-1.64-.7,4,4,0,0,1-1.26-1.22,3.64,3.64,0,0,1-.51-2,3.37,3.37,0,0,1,.4-1.64,3.63,3.63,0,0,1,1.16-1.25,5.79,5.79,0,0,1,1.78-.78,8.7,8.7,0,0,1,2.24-.27,9.18,9.18,0,0,1,2.45.3,5.83,5.83,0,0,1,1.64.67l.11-.79h2.94Z"/><path class="cls-1" d="M105.94,10.23A6.1,6.1,0,0,0,99.6,4.08H90.37A6.06,6.06,0,0,0,84.15,10v.37a6,6,0,0,0,6.22,5.95h10.12a5,5,0,0,0,5.19-4.71h-3.82a2,2,0,0,1-2,2H92.32a2.72,2.72,0,0,1-2.73-2.72h16.35ZM89.6,9.05A2.26,2.26,0,0,1,91.86,6.8h6.38a2.25,2.25,0,0,1,2.25,2.25Z"/><path class="cls-1" d="M82.65,12.22A1.34,1.34,0,0,1,82,12a.74.74,0,0,1-.3-.71V4.11H73.92V8.23h.65a1,1,0,0,1,.79.25,1.31,1.31,0,0,1,.21.84v1.49a1.85,1.85,0,0,1-.35,1.2,1.32,1.32,0,0,1-1.08.42,1.84,1.84,0,0,1-.39,0,.87.87,0,0,1-.36-.18,1,1,0,0,1-.26-.4,2,2,0,0,1-.1-.7v-7h-4.7a4.19,4.19,0,0,1,.19.64,3.28,3.28,0,0,1,0,1.53,3.57,3.57,0,0,1-.68,1.31,5.87,5.87,0,0,1-1,1,1.52,1.52,0,0,1,.16.77v3a5.9,5.9,0,0,0,.19,1.45,3.71,3.71,0,0,0,2.19,2.52,6,6,0,0,0,2.48.44,5.31,5.31,0,0,0,3.29-.88,3.78,3.78,0,0,0,1.39-2.57h.17v3h6.59V12.22Z"/><path class="cls-1" d="M64.21,18.35A3.14,3.14,0,0,1,62,21.24a15.55,15.55,0,0,1-6.27,1c-1,0-2,0-2.89,0a13.75,13.75,0,0,1-2.5-.29,4.3,4.3,0,0,1-1.75-.79A1.91,1.91,0,0,1,48,19.56a1.79,1.79,0,0,1,.52-1.31,4.07,4.07,0,0,1,1.09-.8,2.46,2.46,0,0,1-1-1,2.63,2.63,0,0,1-.26-1.16,2.31,2.31,0,0,1,.54-1.45,6.58,6.58,0,0,1,1.57-1.35,4.49,4.49,0,0,1-1.53-1.6,4.4,4.4,0,0,1-.53-2.24,4.43,4.43,0,0,1,.52-2.19A4.32,4.32,0,0,1,50.4,4.91a7.59,7.59,0,0,1,2.33-1,12.87,12.87,0,0,1,3-.33A13.11,13.11,0,0,1,59,4a7.64,7.64,0,0,1,2.48,1.18A4.61,4.61,0,0,1,63.15,9a5.11,5.11,0,0,1-2.27,3.58,9.22,9.22,0,0,1-5.11,1.23,12.85,12.85,0,0,1-3.29-.39.45.45,0,0,0-.24.39.64.64,0,0,0,.51.61,5.94,5.94,0,0,0,1.36.23,19.11,19.11,0,0,0,1.92,0c.71,0,1.45,0,2.2,0s1.48.1,2.2.21a6.56,6.56,0,0,1,1.92.55,3.56,3.56,0,0,1,1.35,1.09A3,3,0,0,1,64.21,18.35Zm-7.94.17c-.79,0-1.51,0-2.15-.06s-1.22-.1-1.74-.17a.68.68,0,0,0-.11.39,1,1,0,0,0,.86,1,8.36,8.36,0,0,0,2.28.25,12.14,12.14,0,0,0,2.75-.22c.58-.16.87-.37.87-.64a.34.34,0,0,0-.25-.32,2.22,2.22,0,0,0-.65-.18,7.74,7.74,0,0,0-.89-.08ZM54.22,8.68a4,4,0,0,0,.32,1.78,1.53,1.53,0,0,0,2.47,0,3.86,3.86,0,0,0,.33-1.78A3.68,3.68,0,0,0,57,6.94a1.57,1.57,0,0,0-2.47,0A3.82,3.82,0,0,0,54.22,8.68Z"/><path class="cls-1" d="M67.86,4.81a3.59,3.59,0,0,0-.6-1.34,6.4,6.4,0,0,0-.65-.72A11.94,11.94,0,0,0,59.37.34c-8.8,0-12.92,6.82-14.84,6.82l.19-3H38.13V8.23h.59a1.31,1.31,0,0,1,.69.18.76.76,0,0,1,.3.71v2.1a1.08,1.08,0,0,1-.23.71.86.86,0,0,1-.7.29h-.65v4.12h9.34V12.22H46.8A1,1,0,0,1,46,12a1.29,1.29,0,0,1-.21-.84V9c0-2.7,7.11-8,12.57-8,3.68,0,4.79,1.49,5.73,2.51.08.12,0,.22-.17.25l-.27,0a2.8,2.8,0,0,0-.47.11,2.06,2.06,0,0,0-.59.3,1.78,1.78,0,0,0-.76,1.31,2.57,2.57,0,0,0,.54,1.75,3.14,3.14,0,0,0,1,1,2.56,2.56,0,0,0,1.05.35,2.61,2.61,0,0,0,1-.12,3.57,3.57,0,0,0,.94-.46,4.83,4.83,0,0,0,.91-.84,2.8,2.8,0,0,0,.54-1A2.54,2.54,0,0,0,67.86,4.81Z"/></svg>